<svg xmlns="http://www.w3.org/2000/svg" width="1000" height="330" viewBox="0 0 1000 330" role="img" aria-labelledby="title description">
<title id="title">Feature 002 router median durations</title>
<desc id="description">Deterministically generated horizontal bars; durations are nanoseconds and every label includes status, correctness, and scope.</desc>
<rect width="100%" height="100%" fill="#ffffff"/>
<style>text{font-family:ui-monospace,SFMono-Regular,monospace;fill:#17202a}.label{font-size:11px}.value{font-size:11px;font-weight:600}.bar-pass{fill:#4c78a8}.bar-nonpass{fill:#c44e52}.axis{stroke:#566573;stroke-width:1}</style>
<text x="24" y="34" font-size="18" font-weight="700">Router median duration (ns)</text>
<line class="axis" x1="350" y1="60" x2="350" y2="282"/>
<text class="label" x="12" y="88">status=passed / correctness=true / scope=layer_0_router_only / f002-router-fixture-0001 / qwen3mo...</text>
<rect class="bar-pass" x="350" y="72" width="548.800" height="20" rx="2"/>
<text class="value" x="904.800" y="87">1004.5</text>
<text class="label" x="12" y="122">status=passed / correctness=true / scope=layer_0_router_only / f002-router-fixture-0001 / qwen3mo...</text>
<rect class="bar-pass" x="350" y="106" width="560.000" height="20" rx="2"/>
<text class="value" x="916.000" y="121">1025.0</text>
<text class="label" x="12" y="156">status=aborted / correctness=true / scope=layer_0_router_only / f002-router-fixture-aborted-0001 ...</text>
<rect class="bar-nonpass" x="350" y="140" width="548.800" height="20" rx="2"/>
<text class="value" x="904.800" y="155">1004.5</text>
<text class="label" x="12" y="190">status=aborted / correctness=true / scope=layer_0_router_only / f002-router-fixture-aborted-0001 ...</text>
<rect class="bar-nonpass" x="350" y="174" width="560.000" height="20" rx="2"/>
<text class="value" x="916.000" y="189">1025</text>
<text class="label" x="12" y="224">status=failed / correctness=true / scope=layer_0_router_only / f002-router-fixture-failed-0001 / ...</text>
<rect class="bar-nonpass" x="350" y="208" width="548.800" height="20" rx="2"/>
<text class="value" x="904.800" y="223">1004.5</text>
<text class="label" x="12" y="258">status=failed / correctness=true / scope=layer_0_router_only / f002-router-fixture-failed-0001 / ...</text>
<rect class="bar-nonpass" x="350" y="242" width="560.000" height="20" rx="2"/>
<text class="value" x="916.000" y="257">1025</text>
</svg>
